<?xml version="1.0" encoding="UTF-8"?>
<svg xmlns="http://www.w3.org/2000/svg" xmlns:xlink="http://www.w3.org/1999/xlink" width="175px" height="50px" viewBox="0 0 175 50" version="1.1">
<defs>
<clipPath id="clip1">
  <path d="M 59.800781 14.59375 L 174.679688 14.59375 L 174.679688 35.417969 L 59.800781 35.417969 Z M 59.800781 14.59375 "/>
</clipPath>
<clipPath id="clip2">
  <path d="M 0.109375 0.00390625 L 49.996094 0.00390625 L 49.996094 50 L 0.109375 50 Z M 0.109375 0.00390625 "/>
</clipPath>
<clipPath id="clip3">
  <path d="M 18 11.167969 L 32 11.167969 L 32 24 L 18 24 Z M 18 11.167969 "/>
</clipPath>
<clipPath id="clip4">
  <path d="M 13.953125 25 L 36.152344 25 L 36.152344 37 L 13.953125 37 Z M 13.953125 25 "/>
</clipPath>
<clipPath id="clip5">
  <path d="M 20 29 L 30 29 L 30 38.84375 L 20 38.84375 Z M 20 29 "/>
</clipPath>
</defs>
<g id="surface1">
<g clip-path="url(#clip1)" clip-rule="nonzero">
<path style=" stroke:none;fill-rule:nonzero;fill:rgb(20%,15.686275%,52.156863%);fill-opacity:1;" d="M 59.804688 35.417969 L 59.804688 34.960938 C 60.429688 34.929688 60.964844 34.761719 61.417969 34.457031 C 61.863281 34.152344 62.203125 33.632812 62.429688 32.898438 C 62.660156 32.167969 62.773438 31.167969 62.773438 29.902344 L 62.773438 17.339844 C 62.773438 16.773438 62.730469 16.359375 62.648438 16.089844 C 62.5625 15.824219 62.390625 15.644531 62.132812 15.546875 C 61.875 15.445312 61.503906 15.386719 61.015625 15.371094 L 61.015625 14.914062 C 61.363281 14.929688 61.832031 14.945312 62.421875 14.960938 C 63.003906 14.976562 63.617188 14.984375 64.257812 14.984375 C 64.894531 14.984375 65.523438 14.976562 66.140625 14.960938 C 66.757812 14.945312 67.261719 14.929688 67.65625 14.914062 L 67.65625 15.371094 C 67.15625 15.386719 66.777344 15.445312 66.53125 15.546875 C 66.277344 15.644531 66.109375 15.824219 66.027344 16.089844 C 65.941406 16.359375 65.898438 16.773438 65.898438 17.339844 L 65.898438 25.714844 C 65.898438 26.339844 65.898438 27.019531 65.890625 27.75 C 65.882812 28.484375 65.851562 29.191406 65.800781 29.878906 C 65.746094 30.566406 65.648438 31.167969 65.511719 31.6875 C 65.222656 32.753906 64.597656 33.644531 63.640625 34.355469 C 62.679688 35.0625 61.402344 35.417969 59.804688 35.417969 Z M 77.039062 14.59375 C 78.589844 14.59375 79.953125 14.921875 81.125 15.578125 C 82.296875 16.234375 83.203125 17.175781 83.847656 18.402344 C 84.496094 19.632812 84.820312 21.121094 84.820312 22.878906 C 84.820312 24.585938 84.488281 26.082031 83.828125 27.363281 C 83.167969 28.644531 82.246094 29.644531 81.066406 30.359375 C 79.886719 31.078125 78.539062 31.433594 77.015625 31.433594 C 75.464844 31.433594 74.101562 31.105469 72.929688 30.453125 C 71.757812 29.796875 70.847656 28.847656 70.199219 27.613281 C 69.554688 26.378906 69.230469 24.890625 69.230469 23.152344 C 69.230469 21.441406 69.566406 19.949219 70.238281 18.667969 C 70.90625 17.386719 71.828125 16.386719 73 15.667969 C 74.171875 14.953125 75.515625 14.59375 77.039062 14.59375 Z M 76.945312 15.003906 C 76.050781 15.003906 75.269531 15.347656 74.605469 16.035156 C 73.945312 16.722656 73.433594 17.667969 73.066406 18.871094 C 72.703125 20.078125 72.519531 21.472656 72.519531 23.058594 C 72.519531 24.675781 72.722656 26.082031 73.136719 27.28125 C 73.546875 28.480469 74.101562 29.402344 74.800781 30.046875 C 75.5 30.699219 76.269531 31.023438 77.105469 31.023438 C 78.003906 31.023438 78.785156 30.679688 79.445312 29.992188 C 80.109375 29.308594 80.621094 28.355469 80.988281 27.140625 C 81.351562 25.929688 81.535156 24.539062 81.535156 22.96875 C 81.535156 21.335938 81.328125 19.925781 80.917969 18.734375 C 80.507812 17.546875 79.957031 16.625 79.261719 15.976562 C 78.570312 15.328125 77.800781 15.003906 76.945312 15.003906 Z M 86.511719 15.371094 L 86.511719 14.914062 C 86.890625 14.929688 87.378906 14.945312 87.972656 14.960938 C 88.566406 14.976562 89.160156 14.984375 89.753906 14.984375 C 90.496094 14.984375 91.207031 14.976562 91.875 14.960938 C 92.542969 14.945312 93.011719 14.9375 93.289062 14.9375 C 95.085938 14.9375 96.425781 15.273438 97.316406 15.945312 C 98.207031 16.613281 98.652344 17.476562 98.652344 18.53125 C 98.652344 19.0625 98.511719 19.597656 98.230469 20.132812 C 97.949219 20.664062 97.5 21.144531 96.882812 21.574219 C 96.265625 22 95.460938 22.320312 94.472656 22.535156 L 94.472656 22.578125 C 95.8125 22.703125 96.875 22.972656 97.660156 23.390625 C 98.445312 23.8125 99.003906 24.304688 99.339844 24.878906 C 99.671875 25.449219 99.835938 26.050781 99.835938 26.675781 C 99.835938 28.0625 99.304688 29.148438 98.238281 29.933594 C 97.171875 30.722656 95.699219 31.113281 93.816406 31.113281 C 93.480469 31.113281 92.96875 31.101562 92.285156 31.078125 C 91.601562 31.058594 90.769531 31.046875 89.792969 31.046875 C 89.171875 31.046875 88.566406 31.050781 87.972656 31.054688 C 87.378906 31.066406 86.890625 31.085938 86.511719 31.113281 L 86.511719 30.65625 C 87.011719 30.625 87.390625 30.566406 87.636719 30.472656 C 87.890625 30.382812 88.058594 30.199219 88.140625 29.925781 C 88.226562 29.652344 88.269531 29.238281 88.269531 28.6875 L 88.269531 17.339844 C 88.269531 16.773438 88.226562 16.359375 88.140625 16.089844 C 88.058594 15.824219 87.890625 15.644531 87.636719 15.546875 C 87.390625 15.445312 87.011719 15.386719 86.511719 15.371094 Z M 92.902344 15.371094 C 92.273438 15.371094 91.867188 15.5 91.679688 15.761719 C 91.488281 16.019531 91.390625 16.546875 91.390625 17.339844 L 91.390625 28.6875 C 91.390625 29.484375 91.5 29.996094 91.714844 30.230469 C 91.929688 30.46875 92.363281 30.589844 93.015625 30.589844 C 94.265625 30.589844 95.164062 30.242188 95.71875 29.546875 C 96.273438 28.851562 96.554688 27.867188 96.554688 26.585938 C 96.554688 25.410156 96.253906 24.5 95.648438 23.859375 C 95.050781 23.21875 94.058594 22.898438 92.671875 22.898438 L 90.59375 22.898438 C 90.59375 22.898438 90.59375 22.835938 90.59375 22.703125 C 90.59375 22.574219 90.59375 22.511719 90.59375 22.511719 L 92.558594 22.511719 C 93.335938 22.511719 93.933594 22.339844 94.359375 21.992188 C 94.789062 21.652344 95.078125 21.195312 95.230469 20.621094 C 95.382812 20.050781 95.457031 19.4375 95.457031 18.78125 C 95.457031 17.652344 95.261719 16.804688 94.875 16.230469 C 94.488281 15.660156 93.828125 15.371094 92.902344 15.371094 Z M 113.304688 14.914062 C 113.242188 15.570312 113.199219 16.203125 113.179688 16.8125 C 113.15625 17.421875 113.144531 17.890625 113.144531 18.210938 C 113.144531 18.558594 113.152344 18.886719 113.164062 19.191406 C 113.179688 19.5 113.195312 19.765625 113.210938 19.992188 L 112.6875 19.992188 C 112.519531 18.851562 112.289062 17.945312 112 17.28125 C 111.710938 16.617188 111.324219 16.144531 110.835938 15.863281 C 110.351562 15.582031 109.703125 15.441406 108.898438 15.441406 L 107.917969 15.441406 C 107.460938 15.441406 107.109375 15.480469 106.867188 15.554688 C 106.621094 15.632812 106.460938 15.792969 106.378906 16.035156 C 106.292969 16.28125 106.25 16.652344 106.25 17.15625 L 106.25 28.597656 C 106.25 29.175781 106.3125 29.613281 106.433594 29.902344 C 106.554688 30.191406 106.789062 30.382812 107.140625 30.472656 C 107.488281 30.566406 107.992188 30.617188 108.648438 30.632812 L 108.648438 31.113281 C 108.207031 31.085938 107.632812 31.066406 106.933594 31.054688 C 106.234375 31.050781 105.511719 31.046875 104.765625 31.046875 C 104.128906 31.046875 103.511719 31.050781 102.917969 31.054688 C 102.324219 31.066406 101.808594 31.085938 101.367188 31.113281 L 101.367188 30.65625 C 101.867188 30.625 102.246094 30.566406 102.496094 30.472656 C 102.746094 30.382812 102.914062 30.199219 103 29.925781 C 103.082031 29.652344 103.121094 29.238281 103.121094 28.6875 L 103.121094 17.339844 C 103.121094 16.773438 103.082031 16.359375 103 16.089844 C 102.914062 15.824219 102.746094 15.644531 102.496094 15.546875 C 102.246094 15.445312 101.867188 15.386719 101.367188 15.371094 L 101.367188 14.914062 C 102.171875 14.929688 103.035156 14.945312 103.957031 14.960938 C 104.878906 14.976562 105.746094 14.984375 106.570312 14.984375 C 107.390625 14.984375 108.046875 14.984375 108.53125 14.984375 C 109.234375 14.984375 110.027344 14.980469 110.921875 14.972656 C 111.808594 14.964844 112.601562 14.945312 113.304688 14.914062 Z M 105.566406 22.878906 L 109.855469 22.878906 C 109.855469 22.878906 109.855469 22.953125 109.855469 23.105469 C 109.855469 23.257812 109.855469 23.335938 109.855469 23.335938 L 105.566406 23.335938 C 105.566406 23.335938 105.566406 23.257812 105.566406 23.105469 C 105.566406 22.953125 105.566406 22.878906 105.566406 22.878906 Z M 109.855469 19.855469 L 110.382812 19.855469 C 110.320312 20.726562 110.292969 21.390625 110.304688 21.847656 C 110.308594 22.304688 110.3125 22.726562 110.3125 23.105469 C 110.3125 23.488281 110.320312 23.90625 110.335938 24.363281 C 110.351562 24.820312 110.390625 25.484375 110.449219 26.355469 L 109.925781 26.355469 C 109.863281 25.835938 109.75 25.34375 109.582031 24.878906 C 109.414062 24.414062 109.160156 24.042969 108.820312 23.761719 C 108.476562 23.476562 107.984375 23.335938 107.34375 23.335938 L 107.34375 22.878906 C 107.984375 22.878906 108.46875 22.710938 108.796875 22.375 C 109.121094 22.039062 109.367188 21.632812 109.527344 21.160156 C 109.6875 20.6875 109.796875 20.253906 109.855469 19.855469 Z M 122.570312 14.59375 C 124.121094 14.59375 125.484375 14.921875 126.65625 15.578125 C 127.828125 16.234375 128.734375 17.175781 129.382812 18.402344 C 130.027344 19.632812 130.351562 21.121094 130.351562 22.878906 C 130.351562 24.585938 130.023438 26.082031 129.359375 27.363281 C 128.699219 28.644531 127.777344 29.644531 126.601562 30.359375 C 125.421875 31.078125 124.070312 31.433594 122.546875 31.433594 C 120.996094 31.433594 119.632812 31.105469 118.460938 30.453125 C 117.289062 29.796875 116.378906 28.847656 115.730469 27.613281 C 115.085938 26.378906 114.765625 24.890625 114.765625 23.152344 C 114.765625 21.441406 115.097656 19.949219 115.769531 18.667969 C 116.4375 17.386719 117.359375 16.386719 118.53125 15.667969 C 119.703125 14.953125 121.046875 14.59375 122.570312 14.59375 Z M 122.480469 15.003906 C 121.582031 15.003906 120.800781 15.347656 120.136719 16.035156 C 119.476562 16.722656 118.964844 17.667969 118.597656 18.871094 C 118.234375 20.078125 118.050781 21.472656 118.050781 23.058594 C 118.050781 24.675781 118.257812 26.082031 118.667969 27.28125 C 119.078125 28.480469 119.632812 29.402344 120.332031 30.046875 C 121.03125 30.699219 121.800781 31.023438 122.636719 31.023438 C 123.535156 31.023438 124.316406 30.679688 124.976562 29.992188 C 125.640625 29.308594 126.152344 28.355469 126.519531 27.140625 C 126.882812 25.929688 127.066406 24.539062 127.066406 22.96875 C 127.066406 21.335938 126.859375 19.925781 126.449219 18.734375 C 126.039062 17.546875 125.488281 16.625 124.792969 15.976562 C 124.101562 15.328125 123.332031 15.003906 122.480469 15.003906 Z M 132.042969 15.371094 L 132.042969 14.914062 C 132.421875 14.929688 132.910156 14.945312 133.503906 14.960938 C 134.097656 14.976562 134.691406 14.984375 135.285156 14.984375 C 136.027344 14.984375 136.738281 14.976562 137.40625 14.960938 C 138.074219 14.945312 138.546875 14.9375 138.820312 14.9375 C 140.859375 14.9375 142.378906 15.296875 143.371094 16.011719 C 144.371094 16.730469 144.871094 17.699219 144.871094 18.917969 C 144.871094 19.421875 144.769531 19.9375 144.574219 20.460938 C 144.375 20.988281 144.03125 21.472656 143.546875 21.917969 C 143.058594 22.359375 142.394531 22.71875 141.546875 23 C 140.703125 23.285156 139.628906 23.425781 138.320312 23.425781 L 136.128906 23.425781 L 136.128906 22.96875 L 138.089844 22.96875 C 139.050781 22.96875 139.78125 22.796875 140.292969 22.453125 C 140.800781 22.109375 141.144531 21.652344 141.320312 21.078125 C 141.496094 20.507812 141.582031 19.871094 141.582031 19.171875 C 141.582031 17.964844 141.347656 17.03125 140.875 16.363281 C 140.402344 15.703125 139.589844 15.371094 138.433594 15.371094 C 137.808594 15.371094 137.402344 15.5 137.210938 15.761719 C 137.019531 16.019531 136.925781 16.546875 136.925781 17.339844 L 136.925781 28.6875 C 136.925781 29.238281 136.972656 29.652344 137.0625 29.925781 C 137.15625 30.199219 137.324219 30.382812 137.574219 30.472656 C 137.828125 30.566406 138.199219 30.625 138.683594 30.65625 L 138.683594 31.113281 C 138.304688 31.085938 137.816406 31.066406 137.222656 31.054688 C 136.628906 31.050781 136.027344 31.046875 135.421875 31.046875 C 134.734375 31.046875 134.097656 31.050781 133.503906 31.054688 C 132.910156 31.066406 132.421875 31.085938 132.042969 31.113281 L 132.042969 30.65625 C 132.542969 30.625 132.921875 30.566406 133.167969 30.472656 C 133.421875 30.382812 133.589844 30.199219 133.671875 29.925781 C 133.757812 29.652344 133.800781 29.238281 133.800781 28.6875 L 133.800781 17.339844 C 133.800781 16.773438 133.757812 16.359375 133.671875 16.089844 C 133.589844 15.824219 133.421875 15.644531 133.167969 15.546875 C 132.921875 15.445312 132.542969 15.386719 132.042969 15.371094 Z M 136.171875 23.425781 L 136.128906 23.039062 C 136.84375 23.066406 137.441406 23.101562 137.917969 23.136719 C 138.398438 23.179688 138.808594 23.210938 139.148438 23.242188 C 139.492188 23.273438 139.804688 23.3125 140.078125 23.359375 C 141.339844 23.480469 142.269531 23.773438 142.871094 24.238281 C 143.472656 24.703125 143.875 25.410156 144.070312 26.355469 L 144.597656 28.710938 C 144.734375 29.335938 144.878906 29.78125 145.039062 30.046875 C 145.199219 30.316406 145.433594 30.445312 145.738281 30.429688 C 145.949219 30.429688 146.132812 30.371094 146.285156 30.253906 C 146.4375 30.140625 146.589844 29.984375 146.742188 29.789062 L 147.0625 30.0625 C 146.679688 30.535156 146.277344 30.882812 145.851562 31.101562 C 145.425781 31.324219 144.886719 31.433594 144.230469 31.433594 C 143.5 31.433594 142.882812 31.261719 142.382812 30.917969 C 141.878906 30.578125 141.539062 29.925781 141.355469 28.964844 L 140.921875 26.675781 C 140.800781 26.035156 140.65625 25.46875 140.496094 24.984375 C 140.339844 24.496094 140.121094 24.113281 139.847656 23.839844 C 139.574219 23.5625 139.171875 23.425781 138.640625 23.425781 Z M 160.871094 14.914062 C 160.808594 15.617188 160.765625 16.296875 160.742188 16.960938 C 160.722656 17.625 160.710938 18.132812 160.710938 18.484375 C 160.710938 18.835938 160.71875 19.164062 160.734375 19.46875 C 160.75 19.773438 160.765625 20.039062 160.777344 20.269531 L 160.253906 20.269531 C 160.042969 19.046875 159.78125 18.089844 159.476562 17.394531 C 159.171875 16.703125 158.773438 16.203125 158.277344 15.898438 C 157.785156 15.59375 157.132812 15.441406 156.328125 15.441406 L 155.597656 15.441406 L 155.597656 28.484375 C 155.597656 29.109375 155.652344 29.574219 155.765625 29.878906 C 155.882812 30.183594 156.113281 30.386719 156.464844 30.484375 C 156.816406 30.585938 157.324219 30.640625 157.996094 30.65625 L 157.996094 31.113281 C 157.539062 31.085938 156.945312 31.066406 156.214844 31.054688 C 155.484375 31.050781 154.738281 31.046875 153.976562 31.046875 C 153.1875 31.046875 152.445312 31.050781 151.75 31.054688 C 151.058594 31.066406 150.5 31.085938 150.074219 31.113281 L 150.074219 30.65625 C 150.726562 30.640625 151.230469 30.585938 151.582031 30.484375 C 151.929688 30.386719 152.167969 30.183594 152.289062 29.878906 C 152.410156 29.574219 152.472656 29.109375 152.472656 28.484375 L 152.472656 15.441406 L 151.71875 15.441406 C 150.925781 15.441406 150.28125 15.59375 149.777344 15.898438 C 149.273438 16.203125 148.871094 16.703125 148.566406 17.394531 C 148.261719 18.089844 148.011719 19.046875 147.816406 20.269531 L 147.289062 20.269531 C 147.320312 20.039062 147.339844 19.773438 147.34375 19.46875 C 147.351562 19.164062 147.359375 18.835938 147.359375 18.484375 C 147.359375 18.132812 147.347656 17.625 147.320312 16.960938 C 147.300781 16.296875 147.257812 15.617188 147.199219 14.914062 C 147.867188 14.929688 148.605469 14.945312 149.414062 14.960938 C 150.21875 14.976562 151.023438 14.984375 151.832031 14.984375 C 152.636719 14.984375 153.375 14.984375 154.046875 14.984375 C 154.699219 14.984375 155.429688 14.984375 156.238281 14.984375 C 157.042969 14.984375 157.851562 14.976562 158.65625 14.960938 C 159.460938 14.945312 160.199219 14.929688 160.871094 14.914062 Z M 174.21875 14.914062 C 174.15625 15.539062 174.117188 16.144531 174.09375 16.730469 C 174.070312 17.320312 174.058594 17.765625 174.058594 18.070312 C 174.058594 18.363281 174.066406 18.640625 174.082031 18.90625 C 174.097656 19.171875 174.113281 19.398438 174.128906 19.582031 L 173.601562 19.582031 C 173.480469 18.53125 173.28125 17.703125 173.007812 17.097656 C 172.734375 16.496094 172.367188 16.070312 171.902344 15.816406 C 171.4375 15.566406 170.832031 15.441406 170.085938 15.441406 L 168.832031 15.441406 C 168.375 15.441406 168.023438 15.480469 167.78125 15.554688 C 167.539062 15.632812 167.375 15.792969 167.292969 16.035156 C 167.207031 16.28125 167.164062 16.652344 167.164062 17.15625 L 167.164062 28.871094 C 167.164062 29.359375 167.207031 29.730469 167.292969 29.980469 C 167.375 30.234375 167.539062 30.398438 167.78125 30.472656 C 168.023438 30.550781 168.375 30.589844 168.832031 30.589844 L 170.132812 30.589844 C 170.910156 30.589844 171.558594 30.445312 172.085938 30.152344 C 172.609375 29.863281 173.03125 29.386719 173.351562 28.722656 C 173.671875 28.058594 173.90625 27.148438 174.058594 25.988281 L 174.582031 25.988281 C 174.539062 26.460938 174.515625 27.074219 174.515625 27.820312 C 174.515625 28.140625 174.527344 28.605469 174.550781 29.214844 C 174.574219 29.824219 174.613281 30.457031 174.675781 31.113281 C 173.898438 31.085938 173.023438 31.066406 172.050781 31.054688 C 171.078125 31.050781 170.207031 31.046875 169.449219 31.046875 C 168.960938 31.046875 168.308594 31.046875 167.484375 31.046875 C 166.664062 31.046875 165.792969 31.050781 164.875 31.054688 C 163.953125 31.066406 163.085938 31.085938 162.28125 31.113281 L 162.28125 30.65625 C 162.78125 30.625 163.160156 30.566406 163.414062 30.472656 C 163.664062 30.382812 163.828125 30.199219 163.914062 29.925781 C 163.996094 29.652344 164.039062 29.238281 164.039062 28.6875 L 164.039062 17.339844 C 164.039062 16.773438 163.996094 16.359375 163.914062 16.089844 C 163.828125 15.824219 163.664062 15.644531 163.414062 15.546875 C 163.160156 15.445312 162.78125 15.386719 162.28125 15.371094 L 162.28125 14.914062 C 163.085938 14.929688 163.953125 14.945312 164.875 14.960938 C 165.792969 14.976562 166.664062 14.984375 167.484375 14.984375 C 168.308594 14.984375 168.960938 14.984375 169.449219 14.984375 C 170.148438 14.984375 170.945312 14.980469 171.835938 14.972656 C 172.722656 14.964844 173.519531 14.945312 174.21875 14.914062 Z M 166.480469 22.738281 L 170.542969 22.738281 C 170.542969 22.738281 170.542969 22.816406 170.542969 22.96875 C 170.542969 23.121094 170.542969 23.199219 170.542969 23.199219 L 166.480469 23.199219 C 166.480469 23.199219 166.480469 23.121094 166.480469 22.96875 C 166.480469 22.816406 166.480469 22.738281 166.480469 22.738281 Z M 170.679688 19.71875 L 171.207031 19.71875 C 171.144531 20.589844 171.117188 21.253906 171.128906 21.710938 C 171.132812 22.167969 171.136719 22.585938 171.136719 22.96875 C 171.136719 23.351562 171.144531 23.769531 171.160156 24.226562 C 171.175781 24.683594 171.214844 25.347656 171.273438 26.21875 L 170.75 26.21875 C 170.671875 25.699219 170.554688 25.207031 170.398438 24.738281 C 170.234375 24.277344 169.984375 23.902344 169.644531 23.617188 C 169.300781 23.339844 168.808594 23.199219 168.167969 23.199219 L 168.167969 22.738281 C 168.808594 22.738281 169.292969 22.570312 169.621094 22.238281 C 169.945312 21.902344 170.1875 21.496094 170.339844 21.023438 C 170.492188 20.550781 170.605469 20.117188 170.679688 19.71875 Z M 170.679688 19.71875 "/>
</g>
<g clip-path="url(#clip2)" clip-rule="nonzero">
<path style="fill-rule:nonzero;fill:rgb(20%,15.686275%,52.156863%);fill-opacity:1;stroke-width:1;stroke-linecap:butt;stroke-linejoin:miter;stroke:rgb(100%,100%,100%);stroke-opacity:1;stroke-miterlimit:4;" d="M 0.0037849 85.871603 C 0.0037849 38.448369 38.454373 0.000000000000015194 85.875421 0.000000000000015194 C 133.309918 0.000000000000015194 171.747057 38.448369 171.747057 85.871603 C 171.747057 133.308251 133.309918 171.75662 85.875421 171.75662 C 38.454373 171.75662 0.0037849 133.308251 0.0037849 85.871603 Z M 85.875421 165.303841 C 129.745942 165.303841 165.305003 129.73977 165.305003 85.871603 C 165.305003 42.003435 129.745942 6.452779 85.875421 6.452779 C 42.0049 6.452779 6.445839 42.003435 6.445839 85.871603 C 6.445839 129.73977 42.0049 165.303841 85.875421 165.303841 Z M 85.875421 165.303841 " transform="matrix(0.29045,0,0,0.291178,0.108276,-0.000000000000004424)"/>
</g>
<g clip-path="url(#clip3)" clip-rule="nonzero">
<path style=" stroke:none;fill-rule:nonzero;fill:rgb(20%,15.686275%,52.156863%);fill-opacity:1;" d="M 25.082031 11.167969 C 21.667969 11.167969 18.882812 13.957031 18.882812 17.382812 C 18.882812 20.804688 21.667969 23.59375 25.082031 23.59375 C 28.496094 23.59375 31.28125 20.804688 31.28125 17.382812 C 31.28125 13.957031 28.496094 11.167969 25.082031 11.167969 Z M 25.082031 11.167969 "/>
</g>
<g clip-path="url(#clip4)" clip-rule="nonzero">
<path style=" stroke:none;fill-rule:nonzero;fill:rgb(20%,15.686275%,52.156863%);fill-opacity:1;" d="M 30.804688 25.84375 L 19.359375 25.84375 C 16.417969 25.84375 13.953125 28.222656 13.953125 31.234375 L 13.953125 36.242188 L 19.800781 36.242188 C 19.578125 35.640625 19.421875 34.976562 19.421875 34.308594 C 19.421875 31.296875 21.953125 28.824219 25.050781 28.824219 C 28.148438 28.824219 30.679688 31.265625 30.679688 34.308594 C 30.679688 35.007812 30.550781 35.640625 30.300781 36.242188 L 36.148438 36.242188 L 36.148438 31.234375 C 36.210938 28.222656 33.808594 25.84375 30.804688 25.84375 Z M 30.804688 25.84375 "/>
</g>
<path style=" stroke:none;fill-rule:nonzero;fill:rgb(20%,15.686275%,52.156863%);fill-opacity:1;" d="M 24.449219 32.503906 L 25.714844 32.503906 L 25.714844 32.914062 L 24.449219 32.914062 Z M 24.449219 32.503906 "/>
<g clip-path="url(#clip5)" clip-rule="nonzero">
<path style=" stroke:none;fill-rule:nonzero;fill:rgb(20%,15.686275%,52.156863%);fill-opacity:1;" d="M 25.082031 29.839844 C 22.617188 29.839844 20.59375 31.835938 20.59375 34.339844 C 20.59375 36.8125 22.585938 38.84375 25.082031 38.84375 C 27.582031 38.84375 29.574219 36.84375 29.574219 34.339844 C 29.574219 31.835938 27.546875 29.839844 25.082031 29.839844 Z M 27.675781 36.242188 C 27.675781 36.402344 27.546875 36.527344 27.390625 36.527344 L 22.773438 36.527344 C 22.617188 36.527344 22.488281 36.402344 22.488281 36.242188 L 22.488281 33.199219 C 22.488281 33.042969 22.617188 32.914062 22.773438 32.914062 L 24.070312 32.914062 L 24.070312 32.3125 C 24.070312 32.21875 24.164062 32.121094 24.261719 32.121094 L 25.902344 32.121094 C 26 32.121094 26.09375 32.21875 26.09375 32.3125 L 26.09375 32.914062 L 27.390625 32.914062 C 27.546875 32.914062 27.675781 33.042969 27.675781 33.199219 Z M 27.675781 36.242188 "/>
</g>
</g>
</svg>
